<svg id="visual" viewBox="0 0 960 540" width="960" height="540" xmlns="http://www.w3.org/2000/svg" xmlns:xlink="http://www.w3.org/1999/xlink" version="1.1"><g stroke-width="1" stroke-linejoin="bevel"><path d="M508.3 315L423.7 311L450.7 368Z" fill="#317546" stroke="#FFFFFF"></path><path d="M450.7 368L573.3 365L508.3 315Z" fill="#317546" stroke="#FFFFFF"></path><path d="M532.3 190L453.7 200L508.3 315Z" fill="#317546" stroke="#FFFFFF"></path><path d="M508.3 315L453.7 200L423.7 311Z" fill="#317546" stroke="#FFFFFF"></path><path d="M573.3 365L597 336L508.3 315Z" fill="#317546" stroke="#FFFFFF"></path><path d="M450.7 368L517.3 453L573.3 365Z" fill="#317546" stroke="#FFFFFF"></path><path d="M573.3 365L615 430L597 336Z" fill="#317546" stroke="#FFFFFF"></path><path d="M320 373L443.7 474L450.7 368Z" fill="#317546" stroke="#FFFFFF"></path><path d="M450.7 368L443.7 474L517.3 453Z" fill="#317546" stroke="#FFFFFF"></path><path d="M644 279L532.3 190L508.3 315Z" fill="#317546" stroke="#FFFFFF"></path><path d="M278 253L320 373L423.7 311Z" fill="#317546" stroke="#FFFFFF"></path><path d="M423.7 311L320 373L450.7 368Z" fill="#317546" stroke="#FFFFFF"></path><path d="M506.3 540L615 430L517.3 453Z" fill="#317546" stroke="#FFFFFF"></path><path d="M517.3 453L615 430L573.3 365Z" fill="#317546" stroke="#FFFFFF"></path><path d="M706.7 442L644 279L597 336Z" fill="#317546" stroke="#FFFFFF"></path><path d="M597 336L644 279L508.3 315Z" fill="#317546" stroke="#FFFFFF"></path><path d="M453.7 200L278 253L423.7 311Z" fill="#317546" stroke="#FFFFFF"></path><path d="M644 279L639 208L532.3 190Z" fill="#317546" stroke="#FFFFFF"></path><path d="M282 482L446.7 540L443.7 474Z" fill="#317546" stroke="#FFFFFF"></path><path d="M443.7 474L506.3 540L517.3 453Z" fill="#317546" stroke="#FFFFFF"></path><path d="M446.7 540L506.3 540L443.7 474Z" fill="#317546" stroke="#FFFFFF"></path><path d="M532.3 190L523.3 112L453.7 200Z" fill="#317546" stroke="#FFFFFF"></path><path d="M453.7 200L298 143L278 253Z" fill="#317546" stroke="#FFFFFF"></path><path d="M603 105L523.3 112L532.3 190Z" fill="#317546" stroke="#FFFFFF"></path><path d="M278 253L241.3 365L320 373Z" fill="#317546" stroke="#FFFFFF"></path><path d="M320 373L282 482L443.7 474Z" fill="#317546" stroke="#FFFFFF"></path><path d="M241.3 365L282 482L320 373Z" fill="#317546" stroke="#FFFFFF"></path><path d="M322 122L298 143L453.7 200Z" fill="#317546" stroke="#FFFFFF"></path><path d="M278 253L178.3 257L241.3 365Z" fill="#317546" stroke="#FFFFFF"></path><path d="M420.7 71L322 122L453.7 200Z" fill="#317546" stroke="#FFFFFF"></path><path d="M523.3 112L420.7 71L453.7 200Z" fill="#317546" stroke="#FFFFFF"></path><path d="M639 208L603 105L532.3 190Z" fill="#317546" stroke="#FFFFFF"></path><path d="M542.3 0L429.7 0L420.7 71Z" fill="#317546" stroke="#FFFFFF"></path><path d="M661 540L706.7 442L615 430Z" fill="#317546" stroke="#FFFFFF"></path><path d="M615 430L706.7 442L597 336Z" fill="#317546" stroke="#FFFFFF"></path><path d="M644 279L774.7 294L639 208Z" fill="#317546" stroke="#FFFFFF"></path><path d="M263.3 540L275 540L282 482Z" fill="#317546" stroke="#FFFFFF"></path><path d="M282 482L275 540L446.7 540Z" fill="#317546" stroke="#FFFFFF"></path><path d="M506.3 540L661 540L615 430Z" fill="#317546" stroke="#FFFFFF"></path><path d="M231.3 0L245.3 132L322 122Z" fill="#317546" stroke="#FFFFFF"></path><path d="M322 122L245.3 132L298 143Z" fill="#317546" stroke="#FFFFFF"></path><path d="M298 143L245.3 132L278 253Z" fill="#317546" stroke="#FFFFFF"></path><path d="M174.3 421L263.3 540L282 482Z" fill="#317546" stroke="#FFFFFF"></path><path d="M245.3 132L178.3 257L278 253Z" fill="#317546" stroke="#FFFFFF"></path><path d="M241.3 365L174.3 421L282 482Z" fill="#317546" stroke="#FFFFFF"></path><path d="M105.7 296L174.3 421L241.3 365Z" fill="#317546" stroke="#FFFFFF"></path><path d="M789.7 348L774.7 294L644 279Z" fill="#317546" stroke="#FFFFFF"></path><path d="M639 208L760.7 138L603 105Z" fill="#317546" stroke="#FFFFFF"></path><path d="M706.7 442L789.7 348L644 279Z" fill="#317546" stroke="#FFFFFF"></path><path d="M802.3 364L789.7 348L706.7 442Z" fill="#317546" stroke="#FFFFFF"></path><path d="M542.3 0L420.7 71L523.3 112Z" fill="#317546" stroke="#FFFFFF"></path><path d="M420.7 71L330 0L322 122Z" fill="#317546" stroke="#FFFFFF"></path><path d="M603 105L542.3 0L523.3 112Z" fill="#317546" stroke="#FFFFFF"></path><path d="M603 0L542.3 0L603 105Z" fill="#317546" stroke="#FFFFFF"></path><path d="M789.7 348L861.3 268L774.7 294Z" fill="#317546" stroke="#FFFFFF"></path><path d="M781.7 540L802.3 364L706.7 442Z" fill="#317546" stroke="#FFFFFF"></path><path d="M105.7 296L137.7 431L174.3 421Z" fill="#317546" stroke="#FFFFFF"></path><path d="M174.3 421L136.7 540L263.3 540Z" fill="#317546" stroke="#FFFFFF"></path><path d="M822.3 142L760.7 138L774.7 294Z" fill="#317546" stroke="#FFFFFF"></path><path d="M774.7 294L760.7 138L639 208Z" fill="#317546" stroke="#FFFFFF"></path><path d="M429.7 0L330 0L420.7 71Z" fill="#317546" stroke="#FFFFFF"></path><path d="M752.7 0L603 0L603 105Z" fill="#317546" stroke="#FFFFFF"></path><path d="M231.3 0L188.3 95L245.3 132Z" fill="#317546" stroke="#FFFFFF"></path><path d="M245.3 132L109.7 151L178.3 257Z" fill="#317546" stroke="#FFFFFF"></path><path d="M178.3 257L105.7 296L241.3 365Z" fill="#317546" stroke="#FFFFFF"></path><path d="M109.7 151L105.7 296L178.3 257Z" fill="#317546" stroke="#FFFFFF"></path><path d="M822.3 142L756.7 103L760.7 138Z" fill="#317546" stroke="#FFFFFF"></path><path d="M760.7 138L756.7 103L603 105Z" fill="#317546" stroke="#FFFFFF"></path><path d="M661 540L781.7 540L706.7 442Z" fill="#317546" stroke="#FFFFFF"></path><path d="M0 446L136.7 540L137.7 431Z" fill="#317546" stroke="#FFFFFF"></path><path d="M137.7 431L136.7 540L174.3 421Z" fill="#317546" stroke="#FFFFFF"></path><path d="M188.3 95L109.7 151L245.3 132Z" fill="#317546" stroke="#FFFFFF"></path><path d="M889.3 429L861.3 268L802.3 364Z" fill="#317546" stroke="#FFFFFF"></path><path d="M802.3 364L861.3 268L789.7 348Z" fill="#317546" stroke="#FFFFFF"></path><path d="M330 0L231.3 0L322 122Z" fill="#317546" stroke="#FFFFFF"></path><path d="M188.3 95L116.7 61L109.7 151Z" fill="#317546" stroke="#FFFFFF"></path><path d="M861.3 268L822.3 142L774.7 294Z" fill="#317546" stroke="#FFFFFF"></path><path d="M756.7 103L752.7 0L603 105Z" fill="#317546" stroke="#FFFFFF"></path><path d="M105.7 296L63.7 365L137.7 431Z" fill="#317546" stroke="#FFFFFF"></path><path d="M0 314L63.7 365L105.7 296Z" fill="#317546" stroke="#FFFFFF"></path><path d="M831.3 52L752.7 0L756.7 103Z" fill="#317546" stroke="#FFFFFF"></path><path d="M781.7 540L889.3 429L802.3 364Z" fill="#317546" stroke="#FFFFFF"></path><path d="M127.7 0L116.7 61L188.3 95Z" fill="#317546" stroke="#FFFFFF"></path><path d="M0 231L0 314L105.7 296Z" fill="#317546" stroke="#FFFFFF"></path><path d="M781.7 540L854.3 540L889.3 429Z" fill="#317546" stroke="#FFFFFF"></path><path d="M960 79L831.3 52L822.3 142Z" fill="#317546" stroke="#FFFFFF"></path><path d="M822.3 142L831.3 52L756.7 103Z" fill="#317546" stroke="#FFFFFF"></path><path d="M960 197L822.3 142L861.3 268Z" fill="#317546" stroke="#FFFFFF"></path><path d="M0 231L105.7 296L109.7 151Z" fill="#317546" stroke="#FFFFFF"></path><path d="M63.7 365L0 446L137.7 431Z" fill="#317546" stroke="#FFFFFF"></path><path d="M231.3 0L127.7 0L188.3 95Z" fill="#317546" stroke="#FFFFFF"></path><path d="M0 206L0 231L109.7 151Z" fill="#317546" stroke="#FFFFFF"></path><path d="M0 206L109.7 151L0 134Z" fill="#317546" stroke="#FFFFFF"></path><path d="M0 314L0 446L63.7 365Z" fill="#317546" stroke="#FFFFFF"></path><path d="M0 134L109.7 151L116.7 61Z" fill="#317546" stroke="#FFFFFF"></path><path d="M960 497L960 404L889.3 429Z" fill="#317546" stroke="#FFFFFF"></path><path d="M889.3 429L960 404L861.3 268Z" fill="#317546" stroke="#FFFFFF"></path><path d="M960 404L960 241L861.3 268Z" fill="#317546" stroke="#FFFFFF"></path><path d="M0 0L0 134L116.7 61Z" fill="#317546" stroke="#FFFFFF"></path><path d="M960 79L858.3 0L831.3 52Z" fill="#317546" stroke="#FFFFFF"></path><path d="M831.3 52L858.3 0L752.7 0Z" fill="#317546" stroke="#FFFFFF"></path><path d="M960 241L960 197L861.3 268Z" fill="#317546" stroke="#FFFFFF"></path><path d="M0 446L0 540L136.7 540Z" fill="#317546" stroke="#FFFFFF"></path><path d="M854.3 540L960 497L889.3 429Z" fill="#317546" stroke="#FFFFFF"></path><path d="M854.3 540L960 540L960 497Z" fill="#317546" stroke="#FFFFFF"></path><path d="M960 197L960 79L822.3 142Z" fill="#317546" stroke="#FFFFFF"></path><path d="M127.7 0L0 0L116.7 61Z" fill="#317546" stroke="#FFFFFF"></path><path d="M960 79L960 0L858.3 0Z" fill="#317546" stroke="#FFFFFF"></path></g></svg>