<svg id="visual" viewBox="0 0 1080 1920" width="1080" height="1920" xmlns="http://www.w3.org/2000/svg" xmlns:xlink="http://www.w3.org/1999/xlink" version="1.1"><g stroke-width="2" stroke-linejoin="bevel"><path d="M495 929L484 763L219 695Z" fill="#317546" stroke="#FFFFFF"></path><path d="M219 695L357 1047L495 929Z" fill="#317546" stroke="#FFFFFF"></path><path d="M0 1042L206 1152L357 1047Z" fill="#317546" stroke="#FFFFFF"></path><path d="M219 695L0 1042L357 1047Z" fill="#317546" stroke="#FFFFFF"></path><path d="M0 694L0 1042L219 695Z" fill="#317546" stroke="#FFFFFF"></path><path d="M440 435L206 453L219 695Z" fill="#317546" stroke="#FFFFFF"></path><path d="M219 695L206 453L0 694Z" fill="#317546" stroke="#FFFFFF"></path><path d="M484 763L440 435L219 695Z" fill="#317546" stroke="#FFFFFF"></path><path d="M206 1152L466 1296L357 1047Z" fill="#317546" stroke="#FFFFFF"></path><path d="M357 1047L466 1296L495 929Z" fill="#317546" stroke="#FFFFFF"></path><path d="M491 1413L466 1296L275 1516Z" fill="#317546" stroke="#FFFFFF"></path><path d="M0 1042L0 1201L206 1152Z" fill="#317546" stroke="#FFFFFF"></path><path d="M440 435L266 335L206 453Z" fill="#317546" stroke="#FFFFFF"></path><path d="M206 453L0 388L0 694Z" fill="#317546" stroke="#FFFFFF"></path><path d="M900 875L859 795L495 929Z" fill="#317546" stroke="#FFFFFF"></path><path d="M495 929L859 795L484 763Z" fill="#317546" stroke="#FFFFFF"></path><path d="M484 763L819 560L440 435Z" fill="#317546" stroke="#FFFFFF"></path><path d="M0 318L0 388L206 453Z" fill="#317546" stroke="#FFFFFF"></path><path d="M831 1220L900 875L495 929Z" fill="#317546" stroke="#FFFFFF"></path><path d="M275 1516L466 1296L206 1152Z" fill="#317546" stroke="#FFFFFF"></path><path d="M466 1296L831 1220L495 929Z" fill="#317546" stroke="#FFFFFF"></path><path d="M859 795L819 560L484 763Z" fill="#317546" stroke="#FFFFFF"></path><path d="M440 435L608 161L266 335Z" fill="#317546" stroke="#FFFFFF"></path><path d="M1080 574L819 560L859 795Z" fill="#317546" stroke="#FFFFFF"></path><path d="M266 335L0 318L206 453Z" fill="#317546" stroke="#FFFFFF"></path><path d="M491 1413L831 1220L466 1296Z" fill="#317546" stroke="#FFFFFF"></path><path d="M0 1201L0 1414L206 1152Z" fill="#317546" stroke="#FFFFFF"></path><path d="M0 1414L275 1516L206 1152Z" fill="#317546" stroke="#FFFFFF"></path><path d="M819 560L608 161L440 435Z" fill="#317546" stroke="#FFFFFF"></path><path d="M266 335L0 0L0 318Z" fill="#317546" stroke="#FFFFFF"></path><path d="M1080 1228L1080 888L900 875Z" fill="#317546" stroke="#FFFFFF"></path><path d="M900 875L1080 762L859 795Z" fill="#317546" stroke="#FFFFFF"></path><path d="M819 560L721 145L608 161Z" fill="#317546" stroke="#FFFFFF"></path><path d="M1080 888L1080 762L900 875Z" fill="#317546" stroke="#FFFFFF"></path><path d="M491 1413L866 1533L831 1220Z" fill="#317546" stroke="#FFFFFF"></path><path d="M275 1516L475 1640L491 1413Z" fill="#317546" stroke="#FFFFFF"></path><path d="M216 1651L475 1640L275 1516Z" fill="#317546" stroke="#FFFFFF"></path><path d="M0 1632L216 1651L275 1516Z" fill="#317546" stroke="#FFFFFF"></path><path d="M1080 762L1080 574L859 795Z" fill="#317546" stroke="#FFFFFF"></path><path d="M1080 154L721 145L819 560Z" fill="#317546" stroke="#FFFFFF"></path><path d="M0 1414L0 1632L275 1516Z" fill="#317546" stroke="#FFFFFF"></path><path d="M1080 1424L1080 1228L831 1220Z" fill="#317546" stroke="#FFFFFF"></path><path d="M831 1220L1080 1228L900 875Z" fill="#317546" stroke="#FFFFFF"></path><path d="M578 0L313 0L608 161Z" fill="#317546" stroke="#FFFFFF"></path><path d="M608 161L313 0L266 335Z" fill="#317546" stroke="#FFFFFF"></path><path d="M475 1640L866 1533L491 1413Z" fill="#317546" stroke="#FFFFFF"></path><path d="M721 145L578 0L608 161Z" fill="#317546" stroke="#FFFFFF"></path><path d="M313 0L0 0L266 335Z" fill="#317546" stroke="#FFFFFF"></path><path d="M475 1640L896 1608L866 1533Z" fill="#317546" stroke="#FFFFFF"></path><path d="M866 1533L1080 1424L831 1220Z" fill="#317546" stroke="#FFFFFF"></path><path d="M896 1608L1080 1424L866 1533Z" fill="#317546" stroke="#FFFFFF"></path><path d="M1080 154L735 0L721 145Z" fill="#317546" stroke="#FFFFFF"></path><path d="M721 145L735 0L578 0Z" fill="#317546" stroke="#FFFFFF"></path><path d="M1080 574L1080 154L819 560Z" fill="#317546" stroke="#FFFFFF"></path><path d="M0 1920L312 1920L216 1651Z" fill="#317546" stroke="#FFFFFF"></path><path d="M216 1651L312 1920L475 1640Z" fill="#317546" stroke="#FFFFFF"></path><path d="M475 1640L792 1920L896 1608Z" fill="#317546" stroke="#FFFFFF"></path><path d="M312 1920L583 1920L475 1640Z" fill="#317546" stroke="#FFFFFF"></path><path d="M0 1632L0 1920L216 1651Z" fill="#317546" stroke="#FFFFFF"></path><path d="M792 1920L1080 1709L896 1608Z" fill="#317546" stroke="#FFFFFF"></path><path d="M896 1608L1080 1709L1080 1424Z" fill="#317546" stroke="#FFFFFF"></path><path d="M1080 154L1080 0L735 0Z" fill="#317546" stroke="#FFFFFF"></path><path d="M583 1920L792 1920L475 1640Z" fill="#317546" stroke="#FFFFFF"></path><path d="M792 1920L1080 1920L1080 1709Z" fill="#317546" stroke="#FFFFFF"></path></g></svg>